<svg width="40" height="40" viewBox="0 0 40 40" fill="none" xmlns="http://www.w3.org/2000/svg">
<g filter="url(#filter0_d_212_16720)">
<rect x="4" width="32" height="32" rx="16" fill="#574F4D" shape-rendering="crispEdges"/>
<path d="M26.3688 12.4249C26.3671 12.4249 26.3655 12.4243 26.3643 12.4231C26.3632 12.4219 26.3625 12.4203 26.3625 12.4187C26.2722 12.2649 26.1428 12.1377 25.9875 12.0499L20.4875 8.95616C20.3385 8.87296 20.1707 8.82928 20 8.82928C19.8293 8.82928 19.6615 8.87296 19.5125 8.95616L14.0125 12.0499C13.8572 12.1377 13.7278 12.2649 13.6375 12.4187C13.6375 12.4203 13.6368 12.4219 13.6357 12.4231C13.6345 12.4243 13.6329 12.4249 13.6313 12.4249V12.4374C13.5448 12.583 13.4995 12.7493 13.5 12.9187V19.0812C13.5003 19.2593 13.5479 19.4342 13.638 19.5879C13.728 19.7417 13.8573 19.8687 14.0125 19.9562L19.5125 23.0499C19.651 23.1254 19.8049 23.1682 19.9625 23.1749H20.05C20.2036 23.1681 20.3535 23.1253 20.4875 23.0499L25.9875 19.9562C26.1427 19.8687 26.272 19.7417 26.362 19.5879C26.4521 19.4342 26.4997 19.2593 26.5 19.0812V12.9187C26.5009 12.7453 26.4556 12.5749 26.3688 12.4249ZM20 9.82491L24.9813 12.6249L23.0688 13.7124L18.025 10.9312L20 9.82491ZM20.0563 15.4249L15.025 12.6249L17 11.5124L22.05 14.2937L20.0563 15.4249ZM20.5063 21.8937L20.5563 16.2937L22.5625 15.1499V17.5312C22.5625 17.6638 22.6152 17.7909 22.709 17.8847C22.8027 17.9785 22.9299 18.0312 23.0625 18.0312C23.1951 18.0312 23.3223 17.9785 23.4161 17.8847C23.5098 17.7909 23.5625 17.6638 23.5625 17.5312V14.5812L25.5 13.4812V19.0812L20.5063 21.8937Z" fill="#FAFAFA"/>
</g>
<defs>
<filter id="filter0_d_212_16720" x="0" y="0" width="40" height="40" filterUnits="userSpaceOnUse" color-interpolation-filters="sRGB">
<feFlood flood-opacity="0" result="BackgroundImageFix"/>
<feColorMatrix in="SourceAlpha" type="matrix" values="0 0 0 0 0 0 0 0 0 0 0 0 0 0 0 0 0 0 127 0" result="hardAlpha"/>
<feOffset dy="4"/>
<feGaussianBlur stdDeviation="2"/>
<feComposite in2="hardAlpha" operator="out"/>
<feColorMatrix type="matrix" values="0 0 0 0 0 0 0 0 0 0 0 0 0 0 0 0 0 0 0.25 0"/>
<feBlend mode="normal" in2="BackgroundImageFix" result="effect1_dropShadow_212_16720"/>
<feBlend mode="normal" in="SourceGraphic" in2="effect1_dropShadow_212_16720" result="shape"/>
</filter>
</defs>
</svg>
